<svg width="55" height="43" viewBox="0 0 55 43" fill="none" xmlns="http://www.w3.org/2000/svg">
<path d="M1.43262 42.1958C2.05678 42.1958 2.56276 41.7786 2.56276 41.2639C2.56276 40.7492 2.05678 40.3319 1.43262 40.3319C0.808468 40.3319 0.30249 40.7492 0.30249 41.2639C0.30249 41.7786 0.808468 42.1958 1.43262 42.1958Z" fill="#DE6944"/>
<path d="M1.43262 34.1415C2.05678 34.1415 2.56276 33.7242 2.56276 33.2095C2.56276 32.6948 2.05678 32.2776 1.43262 32.2776C0.808468 32.2776 0.30249 32.6948 0.30249 33.2095C0.30249 33.7242 0.808468 34.1415 1.43262 34.1415Z" fill="#DE6944"/>
<path d="M1.43262 26.0862C2.05678 26.0862 2.56276 25.669 2.56276 25.1543C2.56276 24.6396 2.05678 24.2224 1.43262 24.2224C0.808468 24.2224 0.30249 24.6396 0.30249 25.1543C0.30249 25.669 0.808468 26.0862 1.43262 26.0862Z" fill="#DE6944"/>
<path d="M1.43262 18.0981C2.05678 18.0981 2.56276 17.6809 2.56276 17.1662C2.56276 16.6515 2.05678 16.2343 1.43262 16.2343C0.808468 16.2343 0.30249 16.6515 0.30249 17.1662C0.30249 17.6809 0.808468 18.0981 1.43262 18.0981Z" fill="#DE6944"/>
<path d="M1.43262 10.0438C2.05678 10.0438 2.56276 9.62652 2.56276 9.11182C2.56276 8.59712 2.05678 8.17987 1.43262 8.17987C0.808468 8.17987 0.30249 8.59712 0.30249 9.11182C0.30249 9.62652 0.808468 10.0438 1.43262 10.0438Z" fill="#DE6944"/>
<path d="M1.43433 2.05585C2.05849 2.05585 2.56447 1.6386 2.56447 1.1239C2.56447 0.609203 2.05849 0.191956 1.43433 0.191956C0.810177 0.191956 0.304199 0.609203 0.304199 1.1239C0.304199 1.6386 0.810177 2.05585 1.43433 2.05585Z" fill="#DE6944"/>
<path d="M53.7432 42.1953C54.3673 42.1953 54.8733 41.778 54.8733 41.2633C54.8733 40.7486 54.3673 40.3314 53.7432 40.3314C53.119 40.3314 52.613 40.7486 52.613 41.2633C52.613 41.778 53.119 42.1953 53.7432 42.1953Z" fill="#DE6944"/>
<path d="M53.7432 34.1409C54.3673 34.1409 54.8733 33.7236 54.8733 33.2089C54.8733 32.6942 54.3673 32.277 53.7432 32.277C53.119 32.277 52.613 32.6942 52.613 33.2089C52.613 33.7236 53.119 34.1409 53.7432 34.1409Z" fill="#DE6944"/>
<path d="M53.7432 26.0856C54.3673 26.0856 54.8733 25.6683 54.8733 25.1536C54.8733 24.6389 54.3673 24.2217 53.7432 24.2217C53.119 24.2217 52.613 24.6389 52.613 25.1536C52.613 25.6683 53.119 26.0856 53.7432 26.0856Z" fill="#DE6944"/>
<path d="M53.7432 18.0976C54.3673 18.0976 54.8733 17.6803 54.8733 17.1656C54.8733 16.6509 54.3673 16.2337 53.7432 16.2337C53.119 16.2337 52.613 16.6509 52.613 17.1656C52.613 17.6803 53.119 18.0976 53.7432 18.0976Z" fill="#DE6944"/>
<path d="M53.7432 10.0431C54.3673 10.0431 54.8733 9.62588 54.8733 9.11118C54.8733 8.59648 54.3673 8.17923 53.7432 8.17923C53.119 8.17923 52.613 8.59648 52.613 9.11118C52.613 9.62588 53.119 10.0431 53.7432 10.0431Z" fill="#DE6944"/>
<path d="M53.7441 2.05524C54.3683 2.05524 54.8743 1.63799 54.8743 1.12329C54.8743 0.608593 54.3683 0.191345 53.7441 0.191345C53.12 0.191345 52.614 0.608593 52.614 1.12329C52.614 1.63799 53.12 2.05524 53.7441 2.05524Z" fill="#DE6944"/>
<path d="M43.3298 42.1953C43.954 42.1953 44.46 41.778 44.46 41.2633C44.46 40.7486 43.954 40.3314 43.3298 40.3314C42.7057 40.3314 42.1997 40.7486 42.1997 41.2633C42.1997 41.778 42.7057 42.1953 43.3298 42.1953Z" fill="#DE6944"/>
<path d="M43.3298 34.1409C43.954 34.1409 44.46 33.7236 44.46 33.2089C44.46 32.6942 43.954 32.277 43.3298 32.277C42.7057 32.277 42.1997 32.6942 42.1997 33.2089C42.1997 33.7236 42.7057 34.1409 43.3298 34.1409Z" fill="#DE6944"/>
<path d="M43.3298 26.0856C43.954 26.0856 44.46 25.6683 44.46 25.1536C44.46 24.6389 43.954 24.2217 43.3298 24.2217C42.7057 24.2217 42.1997 24.6389 42.1997 25.1536C42.1997 25.6683 42.7057 26.0856 43.3298 26.0856Z" fill="#DE6944"/>
<path d="M43.3298 18.0976C43.954 18.0976 44.46 17.6803 44.46 17.1656C44.46 16.6509 43.954 16.2337 43.3298 16.2337C42.7057 16.2337 42.1997 16.6509 42.1997 17.1656C42.1997 17.6803 42.7057 18.0976 43.3298 18.0976Z" fill="#DE6944"/>
<path d="M43.3298 10.0431C43.954 10.0431 44.46 9.62588 44.46 9.11118C44.46 8.59648 43.954 8.17923 43.3298 8.17923C42.7057 8.17923 42.1997 8.59648 42.1997 9.11118C42.1997 9.62588 42.7057 10.0431 43.3298 10.0431Z" fill="#DE6944"/>
<path d="M43.3296 2.05524C43.9537 2.05524 44.4597 1.63799 44.4597 1.12329C44.4597 0.608593 43.9537 0.191345 43.3296 0.191345C42.7054 0.191345 42.1995 0.608593 42.1995 1.12329C42.1995 1.63799 42.7054 2.05524 43.3296 2.05524Z" fill="#DE6944"/>
<path d="M32.8359 42.1953C33.4601 42.1953 33.9661 41.778 33.9661 41.2633C33.9661 40.7486 33.4601 40.3314 32.8359 40.3314C32.2118 40.3314 31.7058 40.7486 31.7058 41.2633C31.7058 41.778 32.2118 42.1953 32.8359 42.1953Z" fill="#DE6944"/>
<path d="M32.8359 34.1409C33.4601 34.1409 33.9661 33.7236 33.9661 33.2089C33.9661 32.6942 33.4601 32.277 32.8359 32.277C32.2118 32.277 31.7058 32.6942 31.7058 33.2089C31.7058 33.7236 32.2118 34.1409 32.8359 34.1409Z" fill="#DE6944"/>
<path d="M32.8359 26.0856C33.4601 26.0856 33.9661 25.6683 33.9661 25.1536C33.9661 24.6389 33.4601 24.2217 32.8359 24.2217C32.2118 24.2217 31.7058 24.6389 31.7058 25.1536C31.7058 25.6683 32.2118 26.0856 32.8359 26.0856Z" fill="#DE6944"/>
<path d="M32.8359 18.0976C33.4601 18.0976 33.9661 17.6803 33.9661 17.1656C33.9661 16.6509 33.4601 16.2337 32.8359 16.2337C32.2118 16.2337 31.7058 16.6509 31.7058 17.1656C31.7058 17.6803 32.2118 18.0976 32.8359 18.0976Z" fill="#DE6944"/>
<path d="M32.8359 10.0431C33.4601 10.0431 33.9661 9.62588 33.9661 9.11118C33.9661 8.59648 33.4601 8.17923 32.8359 8.17923C32.2118 8.17923 31.7058 8.59648 31.7058 9.11118C31.7058 9.62588 32.2118 10.0431 32.8359 10.0431Z" fill="#DE6944"/>
<path d="M32.8357 2.05524C33.4599 2.05524 33.9658 1.63799 33.9658 1.12329C33.9658 0.608593 33.4599 0.191345 32.8357 0.191345C32.2115 0.191345 31.7056 0.608593 31.7056 1.12329C31.7056 1.63799 32.2115 2.05524 32.8357 2.05524Z" fill="#DE6944"/>
<path d="M22.3416 42.1953C22.9657 42.1953 23.4717 41.778 23.4717 41.2633C23.4717 40.7486 22.9657 40.3314 22.3416 40.3314C21.7174 40.3314 21.2114 40.7486 21.2114 41.2633C21.2114 41.778 21.7174 42.1953 22.3416 42.1953Z" fill="#DE6944"/>
<path d="M22.3416 34.1409C22.9657 34.1409 23.4717 33.7236 23.4717 33.2089C23.4717 32.6942 22.9657 32.277 22.3416 32.277C21.7174 32.277 21.2114 32.6942 21.2114 33.2089C21.2114 33.7236 21.7174 34.1409 22.3416 34.1409Z" fill="#DE6944"/>
<path d="M22.3416 26.0856C22.9657 26.0856 23.4717 25.6683 23.4717 25.1536C23.4717 24.6389 22.9657 24.2217 22.3416 24.2217C21.7174 24.2217 21.2114 24.6389 21.2114 25.1536C21.2114 25.6683 21.7174 26.0856 22.3416 26.0856Z" fill="#DE6944"/>
<path d="M22.3416 18.0976C22.9657 18.0976 23.4717 17.6803 23.4717 17.1656C23.4717 16.6509 22.9657 16.2337 22.3416 16.2337C21.7174 16.2337 21.2114 16.6509 21.2114 17.1656C21.2114 17.6803 21.7174 18.0976 22.3416 18.0976Z" fill="#DE6944"/>
<path d="M22.3416 10.0431C22.9657 10.0431 23.4717 9.62588 23.4717 9.11118C23.4717 8.59648 22.9657 8.17923 22.3416 8.17923C21.7174 8.17923 21.2114 8.59648 21.2114 9.11118C21.2114 9.62588 21.7174 10.0431 22.3416 10.0431Z" fill="#DE6944"/>
<path d="M22.3413 2.05524C22.9655 2.05524 23.4714 1.63799 23.4714 1.12329C23.4714 0.608593 22.9655 0.191345 22.3413 0.191345C21.7172 0.191345 21.2112 0.608593 21.2112 1.12329C21.2112 1.63799 21.7172 2.05524 22.3413 2.05524Z" fill="#DE6944"/>
<path d="M11.8486 42.1953C12.4728 42.1953 12.9788 41.778 12.9788 41.2633C12.9788 40.7486 12.4728 40.3314 11.8486 40.3314C11.2245 40.3314 10.7185 40.7486 10.7185 41.2633C10.7185 41.778 11.2245 42.1953 11.8486 42.1953Z" fill="#DE6944"/>
<path d="M11.8486 34.1409C12.4728 34.1409 12.9788 33.7236 12.9788 33.2089C12.9788 32.6942 12.4728 32.277 11.8486 32.277C11.2245 32.277 10.7185 32.6942 10.7185 33.2089C10.7185 33.7236 11.2245 34.1409 11.8486 34.1409Z" fill="#DE6944"/>
<path d="M11.8486 26.0856C12.4728 26.0856 12.9788 25.6683 12.9788 25.1536C12.9788 24.6389 12.4728 24.2217 11.8486 24.2217C11.2245 24.2217 10.7185 24.6389 10.7185 25.1536C10.7185 25.6683 11.2245 26.0856 11.8486 26.0856Z" fill="#DE6944"/>
<path d="M11.8486 18.0976C12.4728 18.0976 12.9788 17.6803 12.9788 17.1656C12.9788 16.6509 12.4728 16.2337 11.8486 16.2337C11.2245 16.2337 10.7185 16.6509 10.7185 17.1656C10.7185 17.6803 11.2245 18.0976 11.8486 18.0976Z" fill="#DE6944"/>
<path d="M11.8486 10.0431C12.4728 10.0431 12.9788 9.62588 12.9788 9.11118C12.9788 8.59648 12.4728 8.17923 11.8486 8.17923C11.2245 8.17923 10.7185 8.59648 10.7185 9.11118C10.7185 9.62588 11.2245 10.0431 11.8486 10.0431Z" fill="#DE6944"/>
<path d="M11.8474 2.05524C12.4716 2.05524 12.9776 1.63799 12.9776 1.12329C12.9776 0.608593 12.4716 0.191345 11.8474 0.191345C11.2233 0.191345 10.7173 0.608593 10.7173 1.12329C10.7173 1.63799 11.2233 2.05524 11.8474 2.05524Z" fill="#DE6944"/>
</svg>
